HIERARCHY
ROOT pelvis
{
	OFFSET 0.003123 -0.351407 0.012037
	CHANNELS 6 Xposition Yposition Zposition Zrotation Yrotation Xrotation 
	JOINT left_hip
	{
		OFFSET 0.058189 -0.092763 -0.026001
		CHANNELS 3 Zrotation Yrotation Xrotation
		JOINT left_knee
		{
			OFFSET 0.054695 -0.378753 -0.009396
			CHANNELS 3 Zrotation Yrotation Xrotation
			JOINT left_ankle
			{
				OFFSET -0.043453 -0.403059 -0.031876
				CHANNELS 3 Zrotation Yrotation Xrotation
				JOINT left_foot
				{
					OFFSET 0.047257 -0.057997 0.118216
					CHANNELS 3 Zrotation Yrotation Xrotation
					End Site
					{
						OFFSET 0.000000 0.000000 0.000000
					}
				}
			}
		}
	}
	JOINT right_hip
	{
		OFFSET -0.063267 -0.103908 -0.021250
		CHANNELS 3 Zrotation Yrotation Xrotation
		JOINT right_knee
		{
			OFFSET -0.044210 -0.362380 -0.016824
			CHANNELS 3 Zrotation Yrotation Xrotation
			JOINT right_ankle
			{
				OFFSET 0.015417 -0.410728 -0.020192
				CHANNELS 3 Zrotation Yrotation Xrotation
				JOINT right_foot
				{
					OFFSET -0.038812 -0.058328 0.119049
					CHANNELS 3 Zrotation Yrotation Xrotation
					End Site
					{
						OFFSET 0.000000 0.000000 0.000000
					}
				}
			}
		}
	}
	JOINT spine_1
	{
		OFFSET -0.002763 0.109891 -0.027618
		CHANNELS 3 Zrotation Yrotation Xrotation
		JOINT spine_2
		{
			OFFSET 0.009448 0.131853 -0.005940
			CHANNELS 3 Zrotation Yrotation Xrotation
			JOINT spine_3
			{
				OFFSET -0.011330 0.052235 0.028447
				CHANNELS 3 Zrotation Yrotation Xrotation
				JOINT neck
				{
					OFFSET -0.012164 0.165167 -0.031615
					CHANNELS 3 Zrotation Yrotation Xrotation
					JOINT head
					{
						OFFSET 0.024783 0.160452 0.020737
						CHANNELS 3 Zrotation Yrotation Xrotation
						End Site
						{
							OFFSET 0.000000 0.000000 0.000000
						}
					}
				}
				JOINT left_collar
				{
					OFFSET 0.046364 0.084944 -0.007220
					CHANNELS 3 Zrotation Yrotation Xrotation
					JOINT left_shoulder
					{
						OFFSET 0.119239 0.057728 -0.015461
						CHANNELS 3 Zrotation Yrotation Xrotation
						JOINT left_elbow
						{
							OFFSET 0.254123 -0.072151 -0.042459
							CHANNELS 3 Zrotation Yrotation Xrotation
							JOINT left_wrist
							{
								OFFSET 0.251987 0.023221 -0.002472
								CHANNELS 3 Zrotation Yrotation Xrotation
								JOINT left_index_1
								{
									OFFSET 0.101902 -0.008688 0.019351
									CHANNELS 3 Zrotation Yrotation Xrotation
									JOINT left_index_2
									{
										OFFSET 0.030149 -0.011154 0.001151
										CHANNELS 3 Zrotation Yrotation Xrotation
										JOINT left_index_3
										{
											OFFSET 0.006504 -0.021577 -0.002433
											CHANNELS 3 Zrotation Yrotation Xrotation
											End Site
											{
												OFFSET 0.000000 0.000000 0.000000
											}
										}
									}
								}
								JOINT left_middle_1
								{
									OFFSET 0.109398 -0.006328 -0.003981
									CHANNELS 3 Zrotation Yrotation Xrotation
									JOINT left_middle_2
									{
										OFFSET 0.026472 -0.015218 -0.004641
										CHANNELS 3 Zrotation Yrotation Xrotation
										JOINT left_middle_3
										{
											OFFSET 0.005022 -0.023347 -0.001911
											CHANNELS 3 Zrotation Yrotation Xrotation
											End Site
											{
												OFFSET 0.000000 0.000000 0.000000
											}
										}
									}
								}
								JOINT left_pinky_1
								{
									OFFSET 0.084047 -0.014539 -0.043750
									CHANNELS 3 Zrotation Yrotation Xrotation
									JOINT left_pinky_2
									{
										OFFSET 0.012124 -0.014448 -0.005375
										CHANNELS 3 Zrotation Yrotation Xrotation
										JOINT left_pinky_3
										{
											OFFSET 0.003798 -0.018853 0.000167
											CHANNELS 3 Zrotation Yrotation Xrotation
											End Site
											{
												OFFSET 0.000000 0.000000 0.000000
											}
										}
									}
								}
								JOINT left_ring_1
								{
									OFFSET 0.097444 -0.009268 -0.027345
									CHANNELS 3 Zrotation Yrotation Xrotation
									JOINT left_ring_2
									{
										OFFSET 0.023561 -0.016057 -0.001895
										CHANNELS 3 Zrotation Yrotation Xrotation
										JOINT left_ring_3
										{
											OFFSET 0.004257 -0.023548 0.000814
											CHANNELS 3 Zrotation Yrotation Xrotation
											End Site
											{
												OFFSET 0.000000 0.000000 0.000000
											}
										}
									}
								}
								JOINT left_thumb_1
								{
									OFFSET 0.040636 -0.017977 0.025611
									CHANNELS 3 Zrotation Yrotation Xrotation
									JOINT left_thumb_2
									{
										OFFSET 0.021637 -0.017639 0.011623
										CHANNELS 3 Zrotation Yrotation Xrotation
										JOINT left_thumb_3
										{
											OFFSET 0.024002 -0.008356 0.006548
											CHANNELS 3 Zrotation Yrotation Xrotation
											End Site
											{
												OFFSET 0.000000 0.000000 0.000000
											}
										}
									}
								}
							}
						}
					}
				}
				JOINT right_collar
				{
					OFFSET -0.047695 0.084339 -0.013400
					CHANNELS 3 Zrotation Yrotation Xrotation
					JOINT right_shoulder
					{
						OFFSET -0.102578 0.053524 -0.012669
						CHANNELS 3 Zrotation Yrotation Xrotation
						JOINT right_elbow
						{
							OFFSET -0.271150 -0.036492 -0.026467
							CHANNELS 3 Zrotation Yrotation Xrotation
							JOINT right_wrist
							{
								OFFSET -0.249267 -0.004533 -0.015325
								CHANNELS 3 Zrotation Yrotation Xrotation
								JOINT right_index_1
								{
									OFFSET -0.099881 -0.011783 0.019600
									CHANNELS 3 Zrotation Yrotation Xrotation
									JOINT right_index_2
									{
										OFFSET -0.030148 -0.011154 0.001151
										CHANNELS 3 Zrotation Yrotation Xrotation
										JOINT right_index_3
										{
											OFFSET -0.006505 -0.021577 -0.002432
											CHANNELS 3 Zrotation Yrotation Xrotation
											End Site
											{
												OFFSET 0.000000 0.000000 0.000000
											}
										}
									}
								}
								JOINT right_middle_1
								{
									OFFSET -0.107376 -0.009422 -0.003734
									CHANNELS 3 Zrotation Yrotation Xrotation
									JOINT right_middle_2
									{
										OFFSET -0.026472 -0.015218 -0.004641
										CHANNELS 3 Zrotation Yrotation Xrotation
										JOINT right_middle_3
										{
											OFFSET -0.005022 -0.023347 -0.001911
											CHANNELS 3 Zrotation Yrotation Xrotation
											End Site
											{
												OFFSET 0.000000 0.000000 0.000000
											}
										}
									}
								}
								JOINT right_pinky_1
								{
									OFFSET -0.082027 -0.017634 -0.043503
									CHANNELS 3 Zrotation Yrotation Xrotation
									JOINT right_pinky_2
									{
										OFFSET -0.012123 -0.014448 -0.005374
										CHANNELS 3 Zrotation Yrotation Xrotation
										JOINT right_pinky_3
										{
											OFFSET -0.003798 -0.018852 0.000167
											CHANNELS 3 Zrotation Yrotation Xrotation
											End Site
											{
												OFFSET 0.000000 0.000000 0.000000
											}
										}
									}
								}
								JOINT right_ring_1
								{
									OFFSET -0.095423 -0.012362 -0.027099
									CHANNELS 3 Zrotation Yrotation Xrotation
									JOINT right_ring_2
									{
										OFFSET -0.023561 -0.016057 -0.001895
										CHANNELS 3 Zrotation Yrotation Xrotation
										JOINT right_ring_3
										{
											OFFSET -0.004257 -0.023548 0.000816
											CHANNELS 3 Zrotation Yrotation Xrotation
											End Site
											{
												OFFSET 0.000000 0.000000 0.000000
											}
										}
									}
								}
								JOINT right_thumb_1
								{
									OFFSET -0.038613 -0.021074 0.025861
									CHANNELS 3 Zrotation Yrotation Xrotation
									JOINT right_thumb_2
									{
										OFFSET -0.021636 -0.017639 0.011623
										CHANNELS 3 Zrotation Yrotation Xrotation
										JOINT right_thumb_3
										{
											OFFSET -0.024004 -0.008353 0.006547
											CHANNELS 3 Zrotation Yrotation Xrotation
											End Site
											{
												OFFSET 0.000000 0.000000 0.000000
											}
										}
									}
								}
							}
						}
					}
				}
			}
		}
	}
}
MOTION
Frames: 4
Frame Time: 0.050000
0.029943 0.598129 -0.053528 0.497145 1.945896 -24.308099 27.068018 4.502495 -56.887162 -30.842033 15.456626 73.776918 0.782507 7.376193 8.736387 0.000000 0.000000 0.000000 -30.648815 -9.324264 -58.247024 27.388589 -24.008077 91.877729 -0.637094 6.779756 -10.420753 0.000000 0.000000 0.000000 -0.550403 -2.354275 35.542782 -5.354882 -0.542213 -13.743693 7.856874 3.032125 21.463817 1.238413 0.670116 -5.160612 0.000000 0.000000 0.000000 13.719160 -2.649413 2.584631 24.960329 -32.918248 -14.560509 79.214408 2.441835 -0.724562 22.427960 15.544581 -27.979541 13.231916 15.755319 6.789196 19.688487 -5.915322 -30.930494 0.000000 0.000000 0.000000 4.683807 -7.259044 -3.482568 30.768943 -1.333952 -24.572554 0.000000 0.000000 0.000000 22.972577 -21.499291 -32.826617 23.325248 0.507209 7.578746 0.000000 0.000000 0.000000 3.724490 -15.527087 -10.843878 35.669545 2.462786 -14.069241 0.000000 0.000000 0.000000 42.203539 27.500178 8.901590 -24.151512 -11.788729 3.715237 0.000000 0.000000 0.000000 0.695330 12.412021 6.289195 59.265490 16.859646 0.614043 15.541444 50.741767 6.405559 -15.999837 -0.209702 15.447488 0.644865 2.352040 -0.841234 -24.577376 3.126407 5.645871 0.000000 0.000000 0.000000 -0.575087 6.809412 -3.537352 -12.737782 0.915653 10.805923 0.000000 0.000000 0.000000 -22.414782 4.408487 5.039382 0.995250 0.150422 -1.996170 0.000000 0.000000 0.000000 -5.419089 1.974028 -0.932534 -10.340645 0.127742 4.863597 0.000000 0.000000 0.000000 -13.903211 -10.913319 4.801772 12.034800 5.812270 2.188896 0.000000 0.000000 0.000000 
0.036185 0.623917 -0.028450 1.624413 -0.039104 -25.821371 26.499705 4.652030 -51.545116 -31.988802 15.816978 69.613729 3.273998 15.091956 17.610610 0.000000 0.000000 0.000000 -25.214887 -5.328406 -56.029241 28.610484 -24.560988 90.954732 -8.607270 -13.998581 -8.076477 0.000000 0.000000 0.000000 -2.602839 -1.731935 35.547681 -6.037987 -1.083284 -16.459839 8.671856 3.415676 24.834983 -0.688131 1.154721 -6.758952 0.000000 0.000000 0.000000 15.778637 -0.370757 1.839844 31.700977 -38.229854 -19.918465 80.851406 -0.434055 -2.696318 24.698772 22.858559 -29.878730 7.830930 28.558319 7.563544 -33.597784 -22.484449 -29.199725 0.000000 0.000000 0.000000 -9.047866 -0.608119 -0.822336 7.386574 -5.020827 -31.730706 0.000000 0.000000 0.000000 9.419295 -17.471693 -23.578645 15.970682 1.311172 7.500189 0.000000 0.000000 0.000000 -7.560207 -7.740739 -3.386270 16.513487 -1.728290 -19.365227 0.000000 0.000000 0.000000 33.111861 28.476661 4.820319 -18.771480 -8.173718 0.962751 0.000000 0.000000 0.000000 -0.309821 18.945406 9.399416 62.216369 17.062423 0.657860 7.320010 55.640045 3.492510 -12.187032 -9.287738 16.222266 2.710121 0.401244 -0.076587 -29.829748 3.746044 5.927187 0.000000 0.000000 0.000000 0.810526 3.433869 -1.997750 -19.691141 2.003917 10.469267 0.000000 0.000000 0.000000 -24.798906 5.950141 4.898412 -7.299069 -1.034007 11.060761 0.000000 0.000000 0.000000 -6.688434 -0.526287 0.908546 -18.728245 0.154113 7.844244 0.000000 0.000000 0.000000 -14.931422 -11.669705 5.329680 12.918696 6.153055 2.361313 0.000000 0.000000 0.000000 
0.034654 0.631653 -0.020531 1.118788 -1.039214 -25.028957 27.589681 5.403228 -50.360641 -33.463477 17.468319 70.445595 6.228232 16.795109 11.540327 0.000000 0.000000 0.000000 -26.049524 -5.229164 -54.981671 30.397315 -24.450365 86.498555 -7.101599 -11.784039 -5.352118 0.000000 0.000000 0.000000 -2.998483 -1.665028 36.921872 -6.825356 -0.494540 -15.265138 7.521017 2.121952 23.171878 -0.595200 1.258509 -7.757171 0.000000 0.000000 0.000000 18.013214 -1.614109 2.175926 34.009427 -34.784454 -17.530576 78.454733 3.286663 0.662939 34.884294 25.191952 -28.277784 -9.099000 50.154910 -10.509932 -82.409512 -9.645987 -6.321864 0.000000 0.000000 0.000000 -35.778898 5.303425 -1.893166 -31.802687 -14.489501 -44.331545 0.000000 0.000000 0.000000 -8.259973 -24.671676 -28.236788 -3.999888 1.671054 3.362600 0.000000 0.000000 0.000000 -30.553973 -15.760845 -0.760207 -0.633846 -12.065366 -34.145299 0.000000 0.000000 0.000000 25.138069 11.630239 -5.920497 -22.749354 14.622665 21.916644 0.000000 0.000000 0.000000 -3.070323 17.999737 8.564340 65.415732 24.745694 4.359619 7.134518 47.299056 2.565321 -10.141894 -4.073677 16.629996 8.008904 -0.171720 0.244620 -24.636001 2.508764 10.084648 0.000000 0.000000 0.000000 8.885608 1.216398 -2.066204 -4.994241 -0.414419 10.889889 0.000000 0.000000 0.000000 -37.636396 3.546784 13.718308 27.767551 2.836864 -11.447555 0.000000 0.000000 0.000000 -6.835872 -0.498131 0.620634 12.344490 -1.342777 3.911065 0.000000 0.000000 0.000000 -17.860422 -6.950379 -1.098221 15.512826 -3.793052 5.228445 0.000000 0.000000 0.000000 
0.025231 0.627785 -0.027130 1.089915 0.247527 -26.653054 27.258753 4.627338 -48.601159 -33.155141 17.189292 72.042592 6.264373 14.241537 4.822023 0.000000 0.000000 0.000000 -26.960653 -6.080457 -53.849666 31.368732 -24.452868 83.530838 -6.212290 -12.440385 1.024704 0.000000 0.000000 0.000000 -1.034726 -2.274063 38.015298 -9.339849 0.017215 -17.407971 7.665220 1.157924 26.171386 -0.000243 0.876105 -5.673949 0.000000 0.000000 0.000000 17.979929 -3.578530 2.693608 36.024735 -36.169667 -19.130576 77.868415 7.023710 2.934089 32.903664 17.549871 -31.912517 -51.028213 64.590385 -57.525349 -91.203731 7.044404 4.149191 0.000000 0.000000 0.000000 -66.590763 -1.204670 -9.026217 -59.521014 -36.990065 -46.650201 0.000000 0.000000 0.000000 -19.780743 -47.939568 -51.464373 18.652090 12.608634 47.552790 0.000000 0.000000 0.000000 -44.974542 -32.627087 -2.777484 -12.690487 -21.706006 -37.394909 0.000000 0.000000 0.000000 18.327655 6.778521 -4.592439 -5.111401 2.883079 13.696122 0.000000 0.000000 0.000000 -3.725876 14.624876 6.929463 67.027700 24.498929 4.394702 10.046667 48.175090 3.843672 -14.510963 -2.860299 20.787777 7.304925 -0.925469 0.407750 -31.112603 4.497925 3.143976 0.000000 0.000000 0.000000 4.645923 2.227642 -1.941316 -19.018736 2.626174 7.705827 0.000000 0.000000 0.000000 -35.517241 10.601805 1.622763 6.244322 0.337470 -5.326501 0.000000 0.000000 0.000000 -8.888889 3.256470 -1.601107 -4.017626 -0.096211 3.253942 0.000000 0.000000 0.000000 -12.353488 -6.632494 1.294546 12.303801 0.692153 3.534817 0.000000 0.000000 0.000000 
